<svg width="173" height="32" viewBox="0 0 173 32" fill="none" xmlns="http://www.w3.org/2000/svg">
<path d="M39.408 12.424H42.048V14.36H39.408V17H37.472V14.36H34.848V12.424H37.472V9.8H39.408V12.424ZM41.8018 9.912V7.8H49.0338V9.672L45.2418 19H42.9058L46.5858 9.912H41.8018ZM60.4455 13.176C61.4802 13.7947 61.9975 14.696 61.9975 15.88C61.9975 16.9147 61.6348 17.7307 60.9095 18.328C60.1948 18.9253 59.2188 19.224 57.9815 19.224C56.7335 19.224 55.7522 18.9253 55.0375 18.328C54.3228 17.7307 53.9655 16.9147 53.9655 15.88C53.9655 14.7067 54.4775 13.8053 55.5015 13.176C54.7228 12.6213 54.3335 11.848 54.3335 10.856C54.3335 9.82133 54.6802 9.016 55.3735 8.44C56.0775 7.864 56.9468 7.576 57.9815 7.576C59.0268 7.576 59.8908 7.864 60.5735 8.44C61.2668 9.016 61.6135 9.82133 61.6135 10.856C61.6135 11.848 61.2242 12.6213 60.4455 13.176ZM59.4215 10.968C59.4215 10.5627 59.2882 10.2427 59.0215 10.008C58.7548 9.77333 58.4082 9.656 57.9815 9.656C57.5548 9.656 57.2082 9.77333 56.9415 10.008C56.6748 10.2427 56.5415 10.5627 56.5415 10.968C56.5415 11.384 56.6748 11.7093 56.9415 11.944C57.2082 12.1787 57.5548 12.296 57.9815 12.296C58.4082 12.296 58.7548 12.1787 59.0215 11.944C59.2882 11.7093 59.4215 11.384 59.4215 10.968ZM59.3095 16.728C59.6402 16.4507 59.8055 16.072 59.8055 15.592C59.8055 15.112 59.6402 14.7387 59.3095 14.472C58.9788 14.1947 58.5362 14.056 57.9815 14.056C57.4268 14.056 56.9842 14.1947 56.6535 14.472C56.3228 14.7387 56.1575 15.112 56.1575 15.592C56.1575 16.072 56.3228 16.4507 56.6535 16.728C56.9842 17.0053 57.4268 17.144 57.9815 17.144C58.5362 17.144 58.9788 17.0053 59.3095 16.728ZM67.5713 19.224C66.1739 19.224 65.0753 18.696 64.2753 17.64C63.4859 16.5627 63.0913 15.1493 63.0913 13.4C63.0913 11.6507 63.4859 10.2427 64.2753 9.176C65.0753 8.10933 66.1739 7.576 67.5713 7.576C68.9899 7.576 70.0886 8.10933 70.8673 9.176C71.6566 10.2427 72.0513 11.6507 72.0513 13.4C72.0513 15.1493 71.6566 16.5627 70.8673 17.64C70.0886 18.696 68.9899 19.224 67.5713 19.224ZM69.8593 13.4C69.8593 12.2053 69.6619 11.2933 69.2673 10.664C68.8833 10.0347 68.3179 9.72 67.5713 9.72C66.8246 9.72 66.2593 10.0347 65.8753 10.664C65.4913 11.2933 65.2993 12.2053 65.2993 13.4C65.2993 14.5947 65.4913 15.5067 65.8753 16.136C66.2593 16.7547 66.8246 17.064 67.5713 17.064C68.3179 17.064 68.8833 16.7493 69.2673 16.12C69.6619 15.4907 69.8593 14.584 69.8593 13.4ZM77.6494 19.224C76.252 19.224 75.1534 18.696 74.3534 17.64C73.564 16.5627 73.1694 15.1493 73.1694 13.4C73.1694 11.6507 73.564 10.2427 74.3534 9.176C75.1534 8.10933 76.252 7.576 77.6494 7.576C79.068 7.576 80.1667 8.10933 80.9454 9.176C81.7347 10.2427 82.1294 11.6507 82.1294 13.4C82.1294 15.1493 81.7347 16.5627 80.9454 17.64C80.1667 18.696 79.068 19.224 77.6494 19.224ZM79.9374 13.4C79.9374 12.2053 79.74 11.2933 79.3454 10.664C78.9614 10.0347 78.396 9.72 77.6494 9.72C76.9027 9.72 76.3374 10.0347 75.9534 10.664C75.5694 11.2933 75.3774 12.2053 75.3774 13.4C75.3774 14.5947 75.5694 15.5067 75.9534 16.136C76.3374 16.7547 76.9027 17.064 77.6494 17.064C78.396 17.064 78.9614 16.7493 79.3454 16.12C79.74 15.4907 79.9374 14.584 79.9374 13.4ZM94.4315 9.624L92.3355 12.344C93.1142 12.568 93.7328 12.9627 94.1915 13.528C94.6608 14.0933 94.8955 14.7653 94.8955 15.544C94.8955 16.696 94.5062 17.5973 93.7275 18.248C92.9702 18.8987 92.0262 19.224 90.8955 19.224C90.0102 19.224 89.2262 19.0213 88.5435 18.616C87.8608 18.2 87.3648 17.6133 87.0555 16.856L88.9435 15.768C89.2102 16.632 89.8608 17.064 90.8955 17.064C91.4608 17.064 91.8982 16.9307 92.2075 16.664C92.5275 16.3867 92.6875 16.0133 92.6875 15.544C92.6875 15.0853 92.5275 14.7173 92.2075 14.44C91.8982 14.1627 91.4608 14.024 90.8955 14.024H90.4155L89.5675 12.744L91.7755 9.864H87.3915V7.8H94.4315V9.624ZM100.446 19.224C99.0489 19.224 97.9503 18.696 97.1503 17.64C96.3609 16.5627 95.9663 15.1493 95.9663 13.4C95.9663 11.6507 96.3609 10.2427 97.1503 9.176C97.9503 8.10933 99.0489 7.576 100.446 7.576C101.865 7.576 102.964 8.10933 103.742 9.176C104.532 10.2427 104.926 11.6507 104.926 13.4C104.926 15.1493 104.532 16.5627 103.742 17.64C102.964 18.696 101.865 19.224 100.446 19.224ZM102.734 13.4C102.734 12.2053 102.537 11.2933 102.142 10.664C101.758 10.0347 101.193 9.72 100.446 9.72C99.6996 9.72 99.1343 10.0347 98.7503 10.664C98.3663 11.2933 98.1743 12.2053 98.1743 13.4C98.1743 14.5947 98.3663 15.5067 98.7503 16.136C99.1343 16.7547 99.6996 17.064 100.446 17.064C101.193 17.064 101.758 16.7493 102.142 16.12C102.537 15.4907 102.734 14.584 102.734 13.4ZM105.348 8.84L108.292 7.8H110.212V19H108.004V10.136L105.892 10.728L105.348 8.84ZM118.399 15.16H112.399V13.176H118.399V15.16ZM118.521 9.912V7.8H125.753V9.672L121.961 19H119.625L123.305 9.912H118.521ZM134.636 11.464C134.636 12.328 134.412 13.0853 133.964 13.736H133.98L130.492 19H127.964L130.46 15.352C129.298 15.3413 128.348 14.9733 127.612 14.248C126.887 13.5227 126.524 12.5947 126.524 11.464C126.524 10.312 126.898 9.37867 127.644 8.664C128.402 7.93867 129.378 7.576 130.572 7.576C131.767 7.576 132.743 7.93867 133.5 8.664C134.258 9.38933 134.636 10.3227 134.636 11.464ZM128.716 11.464C128.716 12.008 128.892 12.4507 129.244 12.792C129.596 13.1227 130.039 13.288 130.572 13.288C131.127 13.288 131.575 13.1227 131.916 12.792C132.268 12.4507 132.444 12.008 132.444 11.464C132.444 10.92 132.268 10.4827 131.916 10.152C131.575 9.82133 131.127 9.656 130.572 9.656C130.039 9.656 129.596 9.82667 129.244 10.168C128.892 10.4987 128.716 10.9307 128.716 11.464ZM142.04 15.16H136.04V13.176H142.04V15.16ZM150.998 19H143.51V17.352L147.334 13.416C148.187 12.5093 148.614 11.7627 148.614 11.176C148.614 10.7387 148.475 10.3867 148.198 10.12C147.931 9.85333 147.585 9.72 147.158 9.72C146.305 9.72 145.681 10.1573 145.286 11.032L143.43 9.944C143.771 9.18667 144.267 8.60533 144.918 8.2C145.579 7.784 146.315 7.576 147.126 7.576C148.139 7.576 149.009 7.896 149.734 8.536C150.459 9.16533 150.822 10.0187 150.822 11.096C150.822 12.2587 150.209 13.4533 148.982 14.68L146.79 16.872H150.998V19ZM151.474 9.912V7.8H158.706V9.672L154.914 19H152.578L156.258 9.912H151.474Z" fill="#1E959B"/>
<path d="M15.637 0H2.305C1.03 0 0 1.034 0 2.309V29.3791C0 30.6501 1.03 31.6851 2.305 31.6851H15.637C16.91 31.6851 17.944 30.6511 17.944 29.3791V2.309C17.943 1.034 16.91 0 15.637 0ZM16.215 25.6721H1.729V3.89501H16.215V25.6721ZM12.062 2.343H5.88099V1.669H12.063L12.062 2.343ZM14.707 2.035C14.707 2.361 14.441 2.62501 14.116 2.62501C13.79 2.62501 13.525 2.36 13.525 2.035C13.525 1.71 13.79 1.445 14.116 1.445C14.442 1.444 14.707 1.709 14.707 2.035ZM11.785 29.2251H6.15599V27.4931H11.785V29.2251Z" fill="#1E959B"/>
</svg>
