<svg width="80" height="84" viewBox="0 0 80 84" fill="none" xmlns="http://www.w3.org/2000/svg">
<g filter="url(#filter0_d_1_724)">
<path d="M10 25C10 13.9543 18.9543 5 30 5H49.8971C60.9428 5 69.8971 13.9543 69.8971 25V49C69.8971 60.0457 60.9428 69 49.8971 69H30C18.9543 69 10 60.0457 10 49V25Z" fill="url(#paint0_linear_1_724)"/>
</g>
<path fill-rule="evenodd" clip-rule="evenodd" d="M52.978 24.6557C52.978 25.2862 52.8025 25.9279 52.326 26.341C51.6784 26.9026 50.8728 27.2354 49.9997 27.2354H48.5317C46.8748 27.2354 45.5317 25.8923 45.5317 24.2354V21.7452C45.5317 21.2917 45.5905 20.8539 45.6997 20.4416C45.9542 19.4804 46.947 19 47.9412 19H49.978C51.6349 19 52.978 20.3431 52.978 22V24.6557ZM49.9997 27.9217C51.2171 27.9217 52.978 28.7376 52.978 29.9551V51C52.978 52.6569 51.6349 54 49.978 54H30.3613C28.7045 54 27.3613 52.6569 27.3613 51V22C27.3613 20.3431 28.7045 19 30.3613 19H42.764C44.051 19 44.936 20.4582 44.936 21.7452V24.9217C44.936 26.5785 46.2791 27.9217 47.936 27.9217H49.9997ZM29.1491 23.804C29.1491 23.4249 29.4158 23.1177 29.7448 23.1177H41.6596C41.9886 23.1177 42.2553 23.4249 42.2553 23.804C42.2553 24.183 41.9886 24.4902 41.6596 24.4902H29.7448C29.4158 24.4902 29.1491 24.183 29.1491 23.804ZM29.1491 27.2353C29.1491 26.8563 29.4158 26.549 29.7448 26.549H41.6596C41.9886 26.549 42.2553 26.8563 42.2553 27.2353C42.2553 27.6143 41.9886 27.9216 41.6596 27.9216H29.7448C29.4158 27.9216 29.1491 27.6143 29.1491 27.2353ZM29.7448 29.9804C29.4158 29.9804 29.1491 30.2877 29.1491 30.6667C29.1491 31.0457 29.4158 31.353 29.7448 31.353H50.5956C50.9247 31.353 51.1914 31.0457 51.1914 30.6667C51.1914 30.2877 50.9247 29.9804 50.5956 29.9804H29.7448ZM29.1491 34.0981C29.1491 33.719 29.4158 33.4118 29.7448 33.4118H50.5956C50.9247 33.4118 51.1914 33.719 51.1914 34.0981C51.1914 34.4771 50.9247 34.7843 50.5956 34.7843H29.7448C29.4158 34.7843 29.1491 34.4771 29.1491 34.0981ZM29.7448 36.8432C29.4158 36.8432 29.1491 37.1504 29.1491 37.5294C29.1491 37.9085 29.4158 38.2157 29.7448 38.2157H50.5956C50.9247 38.2157 51.1914 37.9085 51.1914 37.5294C51.1914 37.1504 50.9247 36.8432 50.5956 36.8432H29.7448ZM29.1491 40.9608C29.1491 40.5818 29.4158 40.2745 29.7448 40.2745H50.5956C50.9247 40.2745 51.1914 40.5818 51.1914 40.9608C51.1914 41.3398 50.9247 41.6471 50.5956 41.6471H29.7448C29.4158 41.6471 29.1491 41.3398 29.1491 40.9608ZM29.7448 43.7059C29.4158 43.7059 29.1491 44.0132 29.1491 44.3922C29.1491 44.7712 29.4158 45.0785 29.7448 45.0785H50.5956C50.9247 45.0785 51.1914 44.7712 51.1914 44.3922C51.1914 44.0132 50.9247 43.7059 50.5956 43.7059H29.7448ZM29.1491 47.8236C29.1491 47.4445 29.4158 47.1373 29.7448 47.1373H50.5956C50.9247 47.1373 51.1914 47.4445 51.1914 47.8236C51.1914 48.2026 50.9247 48.5098 50.5956 48.5098H29.7448C29.4158 48.5098 29.1491 48.2026 29.1491 47.8236ZM29.7448 50.5687C29.4158 50.5687 29.1491 50.8759 29.1491 51.2549C29.1491 51.6339 29.4158 51.9412 29.7448 51.9412H50.5956C50.9247 51.9412 51.1914 51.6339 51.1914 51.2549C51.1914 50.8759 50.9247 50.5687 50.5956 50.5687H29.7448Z" fill="#F8FAFD"/>
<defs>
<filter id="filter0_d_1_724" x="0" y="0" width="79.897" height="84" filterUnits="userSpaceOnUse" color-interpolation-filters="sRGB">
<feFlood flood-opacity="0" result="BackgroundImageFix"/>
<feColorMatrix in="SourceAlpha" type="matrix" values="0 0 0 0 0 0 0 0 0 0 0 0 0 0 0 0 0 0 127 0" result="hardAlpha"/>
<feOffset dy="5"/>
<feGaussianBlur stdDeviation="5"/>
<feColorMatrix type="matrix" values="0 0 0 0 0.117647 0 0 0 0 0.584314 0 0 0 0 0.607843 0 0 0 0.5 0"/>
<feBlend mode="normal" in2="BackgroundImageFix" result="effect1_dropShadow_1_724"/>
<feBlend mode="normal" in="SourceGraphic" in2="effect1_dropShadow_1_724" result="shape"/>
</filter>
<linearGradient id="paint0_linear_1_724" x1="69.8971" y1="37" x2="10" y2="37" gradientUnits="userSpaceOnUse">
<stop stop-color="#1E959B"/>
<stop offset="1" stop-color="#AFDEDE"/>
</linearGradient>
</defs>
</svg>
