<svg width="171" height="171" viewBox="0 0 171 171" fill="none" xmlns="http://www.w3.org/2000/svg">
<path d="M85.4375 170.438C132.382 170.438 170.438 132.382 170.438 85.4375C170.438 38.4933 132.382 0.4375 85.4375 0.4375C38.4933 0.4375 0.4375 38.4933 0.4375 85.4375C0.4375 132.382 38.4933 170.438 85.4375 170.438Z" fill="#1E959B"/>
<path d="M133.875 87C133.875 76.5484 126.503 67.7969 116.688 65.6438V44.8125C116.688 40.5047 113.183 37 108.875 37H68.25C63.9422 37 60.4375 40.5047 60.4375 44.8125V62H51.4047L50.4625 65.775L47.1281 63.7734L38.7719 72.125L40.7734 75.4625L37 76.4047V88.2203L40.775 89.1625L38.7719 92.5L47.1266 100.853L50.4609 98.8516L51.4047 102.625H60.4375V126.062C60.4375 130.37 63.9422 133.875 68.25 133.875H108.875C113.183 133.875 116.688 130.37 116.688 126.062V108.356C126.503 106.203 133.875 97.4516 133.875 87ZM130.75 87C130.75 90.0453 130.005 92.9141 128.711 95.4594C127.844 93.0734 125.848 91.1969 123.27 90.5516L116.688 88.9047V88.5312C118.634 87.0641 119.812 84.7562 119.812 82.3141V79.1891C119.812 77.0062 118.889 74.9062 117.278 73.4281C115.669 71.9547 113.488 71.2141 111.306 71.4062C107.314 71.7516 104.188 75.3141 104.188 79.5109V82.3125C104.188 84.7547 105.366 87.0625 107.312 88.5297V88.9031L100.73 90.55C98.1516 91.1953 96.1562 93.0719 95.2891 95.4578C93.9953 92.9141 93.25 90.0453 93.25 87C93.25 76.6609 101.661 68.25 112 68.25C122.339 68.25 130.75 76.6609 130.75 87ZM107.312 65.6438C106.238 65.8797 105.197 66.2047 104.188 66.5922C104.188 64.056 102.132 62 99.5953 62H77.9375C75.1761 62 72.9375 64.2386 72.9375 67V78.875C72.9375 81.6364 75.1761 83.875 77.9375 83.875H90.375C90.2266 84.8984 90.125 85.9359 90.125 87C90.125 97.4516 97.4969 106.203 107.312 108.356C107.312 110.369 105.681 112 103.669 112H74.8125C72.0511 112 69.8125 109.761 69.8125 107V63.875C69.8125 61.1136 72.0511 58.875 74.8125 58.875H102.312C105.074 58.875 107.312 61.1136 107.312 63.875V65.6438ZM91.0469 80.75H81.0625C78.3011 80.75 76.0625 78.5114 76.0625 75.75V70.125C76.0625 67.3636 78.3011 65.125 81.0625 65.125H98.1031C99.7375 65.125 101.062 66.45 101.062 68.0844C96.2906 70.8547 92.6562 75.3641 91.0469 80.75ZM68.25 40.125H108.875C111.459 40.125 113.562 42.2281 113.562 44.8125V49.5H63.5625V44.8125C63.5625 42.2281 65.6656 40.125 68.25 40.125ZM60.4375 89.4562C59.4516 89.8906 58.3875 90.125 57.3125 90.125C53.0047 90.125 49.5 86.6203 49.5 82.3125C49.5 78.0047 53.0047 74.5 57.3125 74.5C58.3875 74.5 59.4516 74.7344 60.4375 75.1688V89.4562ZM53.8453 99.5L53.0844 96.4547L52.7672 95.6187L50.9828 94.8937L47.6109 96.9188L42.7078 92.0141L44.7328 88.6406L43.9516 86.7344L40.125 85.7797V78.8453L43.9469 77.8906L44.7328 75.9844L42.7078 72.6109L47.6109 67.7063L50.9828 69.7313L52.8891 68.9562L53.8453 65.125H60.4375V71.8516C59.4234 71.5469 58.3734 71.375 57.3125 71.375C51.2812 71.375 46.375 76.2828 46.375 82.3125C46.375 88.3422 51.2812 93.25 57.3125 93.25C58.3734 93.25 59.4234 93.0781 60.4375 92.7734V99.5H53.8453ZM108.875 130.75H68.25C65.6656 130.75 63.5625 128.647 63.5625 126.062C63.5625 123.474 65.6612 121.375 68.25 121.375H113.562V126.062C113.562 128.647 111.459 130.75 108.875 130.75ZM113.562 113.25C113.562 116.011 111.324 118.25 108.562 118.25H68.5625C65.8011 118.25 63.5625 116.011 63.5625 113.25V52.625H113.562V65.2047C113.044 65.1672 112.528 65.125 112 65.125C111.472 65.125 110.956 65.1672 110.438 65.2047V60.75C110.438 57.9886 108.199 55.75 105.438 55.75H71.6875C68.9261 55.75 66.6875 57.9886 66.6875 60.75V110.125C66.6875 112.886 68.9261 115.125 71.6875 115.125H105.438C108.199 115.125 110.438 112.886 110.438 110.125V108.795C110.956 108.833 111.472 108.875 112 108.875C112.528 108.875 113.044 108.833 113.562 108.795V113.25ZM112 105.75C106.398 105.75 101.377 103.267 97.9375 99.3609V98.1297C97.9375 95.975 99.3984 94.1047 101.487 93.5813L107.897 91.9801C109.39 91.607 110.438 90.2654 110.438 88.7263V87.6952C110.438 87.139 110.142 86.6249 109.661 86.3453C108.191 85.4891 107.312 83.9813 107.312 82.3125V79.5109C107.312 76.9188 109.186 74.7266 111.577 74.5187C112.917 74.4109 114.188 74.8328 115.167 75.7313C116.133 76.6172 116.688 77.8766 116.688 79.1875V82.3125C116.688 83.9813 115.809 85.4891 114.339 86.3453C113.858 86.6249 113.562 87.139 113.562 87.6952V88.7263C113.562 90.2654 114.61 91.607 116.103 91.9801L122.513 93.5813C124.602 94.1047 126.062 95.975 126.062 98.1297V99.3609C122.623 103.267 117.602 105.75 112 105.75Z" fill="#F8FFFF"/>
<path d="M94.8125 44.8125C94.8125 43.9496 95.5121 43.25 96.375 43.25C97.2379 43.25 97.9375 43.9496 97.9375 44.8125C97.9375 45.6754 97.2379 46.375 96.375 46.375C95.5121 46.375 94.8125 45.6754 94.8125 44.8125Z" fill="#F8FFFF"/>
<path d="M79.1875 44.8125C79.1875 43.9496 79.8871 43.25 80.75 43.25H90.125C90.9879 43.25 91.6875 43.9496 91.6875 44.8125C91.6875 45.6754 90.9879 46.375 90.125 46.375H80.75C79.8871 46.375 79.1875 45.6754 79.1875 44.8125Z" fill="#F8FFFF"/>
<path d="M82.3125 126.062C82.3125 125.2 83.0121 124.5 83.875 124.5H93.25C94.113 124.5 94.8125 125.2 94.8125 126.062C94.8125 126.925 94.113 127.625 93.25 127.625H83.875C83.0121 127.625 82.3125 126.925 82.3125 126.062Z" fill="#F8FFFF"/>
<path d="M104.188 126.062C104.188 125.2 104.887 124.5 105.75 124.5C106.613 124.5 107.312 125.2 107.312 126.062C107.312 126.925 106.613 127.625 105.75 127.625C104.887 127.625 104.188 126.925 104.188 126.062Z" fill="#F8FFFF"/>
<path d="M69.8125 126.062C69.8125 125.2 70.5121 124.5 71.375 124.5C72.2379 124.5 72.9375 125.2 72.9375 126.062C72.9375 126.925 72.2379 127.625 71.375 127.625C70.5121 127.625 69.8125 126.925 69.8125 126.062Z" fill="#F8FFFF"/>
<path d="M72.9375 88.5625C72.9375 87.6996 73.6371 87 74.5 87H85.4375C86.3005 87 87 87.6996 87 88.5625C87 89.4254 86.3005 90.125 85.4375 90.125H74.5C73.6371 90.125 72.9375 89.4254 72.9375 88.5625Z" fill="#F8FFFF"/>
<path d="M72.9375 94.8125C72.9375 93.9496 73.6371 93.25 74.5 93.25H85.4375C86.3005 93.25 87 93.9496 87 94.8125C87 95.6755 86.3005 96.375 85.4375 96.375H74.5C73.6371 96.375 72.9375 95.6755 72.9375 94.8125Z" fill="#F8FFFF"/>
<path d="M72.9375 101.062C72.9375 100.2 73.6371 99.5 74.5 99.5H85.4375C86.3005 99.5 87 100.2 87 101.062C87 101.925 86.3005 102.625 85.4375 102.625H74.5C73.6371 102.625 72.9375 101.925 72.9375 101.062Z" fill="#F8FFFF"/>
<path d="M72.9375 107.312C72.9375 106.45 73.6371 105.75 74.5 105.75H85.4375C86.3005 105.75 87 106.45 87 107.312C87 108.175 86.3005 108.875 85.4375 108.875H74.5C73.6371 108.875 72.9375 108.175 72.9375 107.312Z" fill="#F8FFFF"/>
<path d="M124.5 65.125C127.084 65.125 129.187 63.0219 129.187 60.4375C129.187 59.6641 128.998 58.9363 128.663 58.2957C127.685 56.4219 126.062 54.626 126.062 52.5121V44.8125C126.062 43.9496 125.363 43.25 124.5 43.25C123.637 43.25 122.937 43.9496 122.937 44.8125V52.5121C122.937 54.626 121.315 56.4219 120.336 58.2957C120.002 58.9363 119.812 59.6641 119.812 60.4375C119.812 63.0219 121.916 65.125 124.5 65.125ZM124.5 58.875C125.361 58.875 126.062 59.575 126.062 60.4375C126.062 61.3 125.361 62 124.5 62C123.639 62 122.937 61.3 122.937 60.4375C122.937 59.575 123.639 58.875 124.5 58.875Z" fill="#F8FFFF"/>
<path d="M122.938 38.5625C122.938 37.6996 123.637 37 124.5 37C125.363 37 126.062 37.6996 126.062 38.5625C126.062 39.4254 125.363 40.125 124.5 40.125C123.637 40.125 122.938 39.4254 122.938 38.5625Z" fill="#F8FFFF"/>
<path d="M52.625 105.75C50.0406 105.75 47.9375 107.853 47.9375 110.437C47.9375 111.211 48.127 111.939 48.4615 112.579C49.44 114.453 51.0625 116.249 51.0625 118.363V126.063C51.0625 126.925 51.7621 127.625 52.625 127.625C53.4879 127.625 54.1875 126.925 54.1875 126.062V118.363C54.1875 116.249 55.81 114.453 56.7885 112.579C57.123 111.939 57.3125 111.211 57.3125 110.437C57.3125 107.853 55.2094 105.75 52.625 105.75ZM52.625 112C51.7641 112 51.0625 111.3 51.0625 110.437C51.0625 109.575 51.7641 108.875 52.625 108.875C53.4859 108.875 54.1875 109.575 54.1875 110.437C54.1875 111.3 53.4859 112 52.625 112Z" fill="#F8FFFF"/>
<path d="M51.0625 132.313C51.0625 131.45 51.7621 130.75 52.625 130.75C53.4879 130.75 54.1875 131.45 54.1875 132.313C54.1875 133.175 53.4879 133.875 52.625 133.875C51.7621 133.875 51.0625 133.175 51.0625 132.313Z" fill="#F8FFFF"/>
</svg>
