<svg width="318" height="77" viewBox="0 0 318 77" fill="none" xmlns="http://www.w3.org/2000/svg">
<g clip-path="url(#clip0_1_747)">
<path d="M282.089 75.9392H281.841L183.457 68.8258L62.4733 74.3793L62.3494 74.3169L1.98145 37.564L2.91018 37.1272L84.6392 1.80957H84.7011L178.813 7.30066L288.219 4.18072L288.404 4.36792L316.328 37.6264L316.019 38.0008L282.089 75.9392ZM183.519 67.765L281.656 74.8785L314.966 37.6264L287.785 5.3039L178.813 8.42383L84.8249 2.93275L4.27233 37.7512L62.7209 73.3185L183.519 67.765Z" fill="url(#paint0_linear_1_747)"/>
<path d="M282.522 76.3761L281.593 75.7521L248.035 53.7253L184.447 68.4514L185.004 68.8258L183.952 68.6386V69.0754L183.395 68.701L183.209 68.8258V68.701L181.228 69.1378L182.342 68.5138L98.0126 54.1621L61.7918 74.6913L62.1633 73.6305L69.7171 49.3574L0.495117 37.6265L77.3946 24.5851L84.515 1.68481L85.0103 1.99681L110.458 18.9693L177.636 7.55029L176.646 6.86391L178.379 7.2383V7.1135L178.689 7.3007L179.122 7.0511V7.3631L180.547 7.1135L179.927 7.48789L269.829 19.9676H269.891L270.139 20.03L288.032 4.18076L288.652 4.86715L271.439 20.0924H271.996L271.377 20.4668L315.771 37.2521L316.018 37.3145L316.514 37.5017L317.195 37.6265L317.009 37.6889L317.133 37.7513L315.709 38.1257L276.33 47.2359L282.522 76.3761ZM249.211 53.5381L281.16 74.5041L275.464 47.4231L249.211 53.5381ZM70.5839 49.5446L63.3397 72.8817L96.5886 53.9749L70.5839 49.5446ZM179.308 8.73587L183.89 67.5779L230.141 42.0568L179.308 8.73587ZM99.2509 53.5381L181.475 67.5154L132.376 34.6937L99.2509 53.5381ZM133.243 34.1945L182.961 67.3907L178.379 8.54867L133.243 34.1945ZM231.008 42.6184L186.552 67.1411L247.044 53.1013L231.008 42.6184ZM70.8316 48.671L97.8269 53.2885L131.509 34.1321L110.21 19.9052L78.0757 25.3339L70.8316 48.671ZM231.875 42.1192L248.221 52.7894L275.34 46.4871L271.563 28.4539L260.913 26.1451L231.875 42.1192ZM5.81988 37.6265L69.9647 48.5462L77.0851 25.5211L5.81988 37.6265ZM272.43 28.7035L276.145 46.3623L313.542 37.6889L272.43 28.7035ZM181.042 8.79827L231.008 41.5576L259.489 25.8955L181.042 8.79827ZM272.244 27.7051L309.765 35.8793L270.82 21.1532L272.244 27.7051ZM111.51 19.718L132.438 33.6954L176.398 8.73587L111.51 19.718ZM262.028 25.5211L271.315 27.5179L269.953 21.1532L262.028 25.5211ZM190.205 9.85905L260.666 25.2091L268.839 20.7164L263.576 19.9676L190.205 9.85905ZM85.0103 3.05759L78.3853 24.3979L109.157 19.1565L85.0103 3.05759Z" fill="url(#paint1_linear_1_747)"/>
<path d="M178.813 9.42218C179.668 9.42218 180.361 8.72376 180.361 7.86221C180.361 7.00067 179.668 6.30225 178.813 6.30225C177.958 6.30225 177.265 7.00067 177.265 7.86221C177.265 8.72376 177.958 9.42218 178.813 9.42218Z" fill="#1E959B"/>
<path d="M62.5969 76.1888C63.8964 76.1888 64.9497 75.1272 64.9497 73.8177C64.9497 72.5081 63.8964 71.4465 62.5969 71.4465C61.2975 71.4465 60.2441 72.5081 60.2441 73.8177C60.2441 75.1272 61.2975 76.1888 62.5969 76.1888Z" fill="#1E959B"/>
<path d="M281.841 77.0001C282.696 77.0001 283.389 76.3016 283.389 75.4401C283.389 74.5785 282.696 73.8801 281.841 73.8801C280.986 73.8801 280.293 74.5785 280.293 75.4401C280.293 76.3016 280.986 77.0001 281.841 77.0001Z" fill="#1E959B"/>
<path d="M315.647 39.9977C316.947 39.9977 318 38.9361 318 37.6265C318 36.317 316.947 35.2554 315.647 35.2554C314.348 35.2554 313.294 36.317 313.294 37.6265C313.294 38.9361 314.348 39.9977 315.647 39.9977Z" fill="#1E959B"/>
<path d="M288.033 7.55021C289.572 7.55021 290.819 6.29305 290.819 4.74227C290.819 3.19148 289.572 1.93433 288.033 1.93433C286.494 1.93433 285.247 3.19148 285.247 4.74227C285.247 6.29305 286.494 7.55021 288.033 7.55021Z" fill="#1E959B"/>
<path d="M183.519 71.5089C185.263 71.5089 186.676 70.0842 186.676 68.3266C186.676 66.5691 185.263 65.1443 183.519 65.1443C181.775 65.1443 180.361 66.5691 180.361 68.3266C180.361 70.0842 181.775 71.5089 183.519 71.5089Z" fill="#1E959B"/>
<path d="M3.15771 40.8088C4.90167 40.8088 6.31542 39.384 6.31542 37.6264C6.31542 35.8689 4.90167 34.4441 3.15771 34.4441C1.41376 34.4441 0 35.8689 0 37.6264C0 39.384 1.41376 40.8088 3.15771 40.8088Z" fill="#1E959B"/>
<path d="M84.7627 4.7423C86.0621 4.7423 87.1155 3.6807 87.1155 2.37115C87.1155 1.0616 86.0621 0 84.7627 0C83.4633 0 82.4099 1.0616 82.4099 2.37115C82.4099 3.6807 83.4633 4.7423 84.7627 4.7423Z" fill="#1E959B"/>
<path d="M42.7219 20.4043C44.8889 21.4027 46.4988 22.7754 47.6752 24.585C48.8516 26.3946 49.4088 28.5161 49.4088 30.9497C49.4088 33.3832 48.8516 35.5048 47.6752 37.3143C46.4988 39.1239 44.8889 40.4967 42.7219 41.495C40.5548 42.431 38.0782 42.9302 35.1681 42.9302H28.4812V52.0404H20.9275V18.9691H35.1062C38.0163 18.9691 40.5548 19.4059 42.7219 20.4043ZM39.9357 35.1928C41.1121 34.1944 41.7312 32.8216 41.7312 30.9497C41.7312 29.0777 41.1121 27.6425 39.9357 26.6442C38.7593 25.6458 37.0256 25.1466 34.7347 25.1466H28.5431V36.6279H34.7347C36.9637 36.6903 38.6973 36.1912 39.9357 35.1928ZM66.931 44.7398H62.4111V52.0404H54.9812V24.8346H67.2406C70.9555 24.8346 73.9275 25.7082 76.0945 27.5177C78.2616 29.3273 79.3761 31.7608 79.3761 34.8808C79.3761 36.8775 78.8808 38.5623 77.952 40.0599C77.0233 41.495 75.6611 42.6806 73.9275 43.4918L79.9333 52.0404H71.9462L66.931 44.7398ZM70.646 31.7608C69.7791 31.0121 68.4789 30.7001 66.7452 30.7001H62.4111V39.1239H66.7452C68.4789 39.1239 69.7791 38.7495 70.646 38.0631C71.5128 37.3143 71.9462 36.316 71.9462 34.9432C71.9462 33.508 71.5128 32.4472 70.646 31.7608ZM90.5829 50.7301C88.3539 49.6069 86.4964 47.8597 85.1962 45.6758C83.896 43.5542 83.2149 41.1207 83.2149 38.4375C83.2149 35.7544 83.896 33.3208 85.1962 31.1993C86.4964 29.0153 88.3539 27.2681 90.5829 26.145C92.8737 24.9594 95.4742 24.3354 98.3223 24.3354C101.17 24.3354 103.771 24.9594 106.062 26.145C108.291 27.2681 110.148 29.0777 111.449 31.1993C112.749 33.3832 113.43 35.7544 113.43 38.4375C113.43 41.1207 112.749 43.5542 111.449 45.6758C110.148 47.7973 108.291 49.5445 106.062 50.7301C103.771 51.9156 101.17 52.5396 98.3223 52.5396C95.4742 52.5396 92.8737 51.9156 90.5829 50.7301ZM102.285 45.4262C103.461 44.7398 104.39 43.7414 105.009 42.5558C105.69 41.3078 106 39.8727 106 38.4375C106 36.8775 105.69 35.5048 105.009 34.3192C104.39 33.1336 103.399 32.1352 102.285 31.4489C99.8702 30.0761 96.8983 30.0761 94.4836 31.4489C93.3072 32.1352 92.3784 33.1336 91.6973 34.3192C91.0163 35.5048 90.7067 36.9399 90.7067 38.4375C90.7067 39.8727 91.0163 41.2454 91.6973 42.5558C92.3165 43.7414 93.3072 44.7398 94.4836 45.4262C96.8364 46.7989 99.8083 46.7989 102.285 45.4262ZM118.755 24.8346H131.447C134.481 24.8346 137.206 25.3962 139.496 26.457C141.787 27.5177 143.583 29.1401 144.883 31.1993C146.121 33.2584 146.802 35.6296 146.802 38.4375C146.802 41.1831 146.183 43.5542 144.883 45.6134C143.645 47.6725 141.849 49.2325 139.496 50.3557C137.206 51.4788 134.481 52.0404 131.447 52.0404H118.755V24.8346ZM131.2 46.1749C133.676 46.1749 135.658 45.4886 137.082 44.1782C138.506 42.8678 139.249 40.9335 139.249 38.4999C139.249 36.0664 138.506 34.132 137.082 32.7592C135.658 31.3865 133.676 30.7001 131.2 30.7001H126.123V46.1749H131.2ZM155.161 49.2949C152.932 47.1109 151.818 44.1158 151.818 40.3095V24.8346H159.248V40.0599C159.248 42.1814 159.681 43.7414 160.61 44.8022C161.538 45.863 162.901 46.4245 164.696 46.4245C166.43 46.4245 167.792 45.863 168.659 44.8022C169.588 43.7414 170.021 42.119 170.021 40.0599V24.8346H177.327V40.3095C177.327 44.1158 176.213 47.1109 173.984 49.2949C171.755 51.4788 168.597 52.5396 164.572 52.5396C160.548 52.5396 157.39 51.4788 155.161 49.2949ZM189.586 50.7301C187.357 49.6069 185.5 47.8597 184.2 45.6758C182.899 43.5542 182.218 41.1207 182.218 38.4375C182.218 35.7544 182.899 33.3208 184.2 31.1993C185.5 29.0777 187.357 27.3305 189.586 26.145C191.877 24.9594 194.416 24.3354 197.264 24.3354C199.864 24.3354 202.093 24.7098 204.013 25.521C205.932 26.3322 207.542 27.5801 208.904 29.3273L204.137 33.6952C202.341 31.5112 200.174 30.4505 197.574 30.4505C195.283 30.4505 193.425 31.1993 191.939 32.6968C190.453 34.1944 189.71 36.1288 189.71 38.4999C189.71 40.0599 190.02 41.495 190.701 42.6806C191.32 43.8662 192.311 44.8646 193.487 45.4886C194.725 46.1749 196.149 46.4869 197.574 46.4869C200.174 46.4869 202.341 45.4262 204.137 43.2422L208.904 47.6101C207.604 49.2949 205.932 50.5429 204.013 51.354C202.093 52.1652 199.864 52.5396 197.264 52.5396C194.478 52.5396 191.877 51.9156 189.586 50.7301ZM218.625 30.6377H210.142V24.8346H234.537V30.6377H226.055V51.978H218.625V30.6377ZM243.577 21.9642V34.9432H260.542V37.9383H243.577V51.978H240.11V18.9067H262.585V21.9018L243.577 21.9642ZM268.963 25.3338H272.306V52.0404H268.963V25.3338ZM286.794 28.1417H277.445V25.3338H299.487V28.1417H290.138V52.0404H286.794V28.1417ZM268.529 19.8427C267.972 21.0283 268.529 22.4634 269.706 22.9626C270.882 23.5242 272.306 22.9626 272.801 21.7771C273.359 20.5915 272.801 19.1563 271.625 18.6571C270.449 18.0955 269.024 18.5947 268.529 19.8427Z" fill="#1E959B"/>
</g>
<defs>
<linearGradient id="paint0_linear_1_747" x1="1.98206" y1="38.8998" x2="316.324" y2="38.8998" gradientUnits="userSpaceOnUse">
<stop stop-color="#AFDBDE"/>
<stop offset="1" stop-color="#C7E5E7"/>
</linearGradient>
<linearGradient id="paint1_linear_1_747" x1="0.464964" y1="39.0307" x2="317.167" y2="39.0307" gradientUnits="userSpaceOnUse">
<stop stop-color="#AFDBDE"/>
<stop offset="1" stop-color="#C7E5E7"/>
</linearGradient>
<clipPath id="clip0_1_747">
<rect width="318" height="77" fill="white"/>
</clipPath>
</defs>
</svg>
